# xmcd
#
# Track frame offsets:
#	150
#	17692
#	32467
#	50361
#	68139
#	82154
#	95955
#	115575
#	134973
#	151832
#	171042
#	188514
#	199610
#	215204
#	227721
#	239589
#	252616
#	268480
#	284986
#	297601
#	315556
#
# Disc length: 4439 seconds
#
# Revision: 0
# Processed by: cddbd v1.4PL0 Copyright (c) Steve Scherf et al.
# Submitted via: dBpowerAMP V4.0
#
DISCID=4f115515
DTITLE=The Clovers - Anthology
DYEAR=1900
DGENRE=Rock/Pop
TTITLE0=Squeeze Box
TTITLE1=Let's Get Loose
TTITLE2=You Sexy Thing
TTITLE3=Drive It Home
TTITLE4=Going Home to Jesus
TTITLE5=All About You
TTITLE6=Don't Play That Song
TTITLE7=Derby Town
TTITLE8=Love Is So Good When You're Stealin It
TTITLE9=Steppin' in Steppin' Out
TTITLE10=My Mother's Lullaby
TTITLE11=One Mint Julep
TTITLE12=Nip Sip
TTITLE13=Crawlin'
TTITLE14=Lovey Dovey
TTITLE15=Blue Velvet
TTITLE16=Devil or Angel
TTITLE17=Your Cash Ain't Nothin' But Trash
TTITLE18=Love Potion No. 9
TTITLE19=Down in the Alley
TTITLE20=Squeeze Box [Alternate Mix]
EXTD=
EXTT0=
EXTT1=
EXTT2=
EXTT3=
EXTT4=
EXTT5=
EXTT6=
EXTT7=
EXTT8=
EXTT9=
EXTT10=
EXTT11=
EXTT12=
EXTT13=
EXTT14=
EXTT15=
EXTT16=
EXTT17=
EXTT18=
EXTT19=
EXTT20=
PLAYORDER=
